<?xml version="1.0" encoding="utf-8" standalone="no"?>
<!DOCTYPE svg PUBLIC "-//W3C//DTD SVG 1.1//EN"
  "http://www.w3.org/Graphics/SVG/1.1/DTD/svg11.dtd">
<svg xmlns:xlink="http://www.w3.org/1999/xlink" width="117.24pt" height="195.8pt" viewBox="0 0 117.24 195.8" xmlns="http://www.w3.org/2000/svg" version="1.1">
 <metadata>
  <rdf:RDF xmlns:dc="http://purl.org/dc/elements/1.1/" xmlns:cc="http://creativecommons.org/ns#" xmlns:rdf="http://www.w3.org/1999/02/22-rdf-syntax-ns#">
   <cc:Work>
    <dc:type rdf:resource="http://purl.org/dc/dcmitype/StillImage"/>
    <dc:date>2026-05-28T08:40:33.912150</dc:date>
    <dc:format>image/svg+xml</dc:format>
    <dc:creator>
     <cc:Agent>
      <dc:title>Matplotlib v3.10.6, https://matplotlib.org/</dc:title>
     </cc:Agent>
    </dc:creator>
   </cc:Work>
  </rdf:RDF>
 </metadata>
 <defs>
  <style type="text/css">*{stroke-linejoin: round; stroke-linecap: butt}</style>
 </defs>
 <g id="figure_1">
  <g id="patch_1">
   <path d="M 0 195.8 
L 117.24 195.8 
L 117.24 0 
L 0 0 
z
" style="fill: #ffffff"/>
  </g>
  <g id="axes_1">
   <g id="line2d_1">
    <path d="M 28.44 31.28 
L 28.44 22.28 
L 28.44 13.28 
" clip-path="url(#p9726cec8c6)" style="fill: none; stroke: #1a2840; stroke-width: 2; stroke-linecap: round"/>
   </g>
   <g id="line2d_2">
    <path d="M 28.44 13.28 
L 28.44 40.28 
L 37.44 43.28 
L 19.44 49.28 
L 37.44 55.28 
L 19.44 61.28 
L 37.44 67.28 
L 19.44 73.28 
L 28.44 76.28 
L 28.44 103.28 
" clip-path="url(#p9726cec8c6)" style="fill: none; stroke: #c8a020; stroke-width: 2; stroke-linecap: round"/>
   </g>
   <g id="line2d_3">
    <path d="M 28.44 103.28 
L 55.44 103.28 
L 82.44 103.28 
" clip-path="url(#p9726cec8c6)" style="fill: none; stroke: #1a2840; stroke-width: 2; stroke-linecap: round"/>
   </g>
   <g id="line2d_4">
    <path d="M 28.44 103.28 
L 28.44 118.28 
L 52.44 118.28 
L 52.44 142.28 
L 28.44 142.28 
L 28.44 157.28 
" clip-path="url(#p9726cec8c6)" style="fill: none; stroke: #000000; stroke-width: 2; stroke-linecap: round"/>
   </g>
   <g id="line2d_5">
    <path d="M 58.44 118.28 
L 58.44 142.28 
" clip-path="url(#p9726cec8c6)" style="fill: none; stroke: #000000; stroke-width: 2; stroke-linecap: round"/>
   </g>
   <g id="line2d_6">
    <path d="M 58.44 130.28 
L 77.64 130.28 
" clip-path="url(#p9726cec8c6)" style="fill: none; stroke: #000000; stroke-width: 2; stroke-linecap: round"/>
   </g>
   <g id="line2d_7">
    <path d="M 28.44 157.28 
L 28.44 162.68 
L 28.44 168.08 
" clip-path="url(#p9726cec8c6)" style="fill: none; stroke: #1a2840; stroke-width: 2; stroke-linecap: round"/>
   </g>
   <g id="line2d_8">
    <path d="M 28.44 168.08 
L 28.44 182.48 
L 19.44 182.48 
L 37.44 182.48 
M 22.14 186.8 
L 34.74 186.8 
M 26.64 191.12 
L 30.24 191.12 
" clip-path="url(#p9726cec8c6)" style="fill: none; stroke: #000000; stroke-width: 2; stroke-linecap: round"/>
   </g>
   <g id="line2d_9">
    <path d="M 77.64 130.28 
L 88.44 130.28 
L 99.24 130.28 
" clip-path="url(#p9726cec8c6)" style="fill: none; stroke: #3a6a8a; stroke-width: 2; stroke-linecap: round"/>
   </g>
   <g id="text_1">
    <!-- VDD -->
    <g style="fill: #5a6a7a" transform="translate(2.599375 12.439375) scale(0.1 -0.1)">
     <defs>
      <path id="DejaVuSans-56" d="M 1831 0 
L 50 4666 
L 709 4666 
L 2188 738 
L 3669 4666 
L 4325 4666 
L 2547 0 
L 1831 0 
z
" transform="scale(0.015625)"/>
      <path id="DejaVuSans-44" d="M 1259 4147 
L 1259 519 
L 2022 519 
Q 2988 519 3436 956 
Q 3884 1394 3884 2338 
Q 3884 3275 3436 3711 
Q 2988 4147 2022 4147 
L 1259 4147 
z
M 628 4666 
L 1925 4666 
Q 3281 4666 3915 4102 
Q 4550 3538 4550 2338 
Q 4550 1131 3912 565 
Q 3275 0 1925 0 
L 628 0 
L 628 4666 
z
" transform="scale(0.015625)"/>
     </defs>
     <use xlink:href="#DejaVuSans-56"/>
     <use xlink:href="#DejaVuSans-44" transform="translate(68.408203 0)"/>
     <use xlink:href="#DejaVuSans-44" transform="translate(145.410156 0)"/>
    </g>
   </g>
   <g id="text_2">
    <!-- Rpu -->
    <g style="fill: #c8a020" transform="translate(22.222812 59.800312) scale(0.1 -0.1)">
     <defs>
      <path id="DejaVuSans-52" d="M 2841 2188 
Q 3044 2119 3236 1894 
Q 3428 1669 3622 1275 
L 4263 0 
L 3584 0 
L 2988 1197 
Q 2756 1666 2539 1819 
Q 2322 1972 1947 1972 
L 1259 1972 
L 1259 0 
L 628 0 
L 628 4666 
L 2053 4666 
Q 2853 4666 3247 4331 
Q 3641 3997 3641 3322 
Q 3641 2881 3436 2590 
Q 3231 2300 2841 2188 
z
M 1259 4147 
L 1259 2491 
L 2053 2491 
Q 2509 2491 2742 2702 
Q 2975 2913 2975 3322 
Q 2975 3731 2742 3939 
Q 2509 4147 2053 4147 
L 1259 4147 
z
" transform="scale(0.015625)"/>
      <path id="DejaVuSans-70" d="M 1159 525 
L 1159 -1331 
L 581 -1331 
L 581 3500 
L 1159 3500 
L 1159 2969 
Q 1341 3281 1617 3432 
Q 1894 3584 2278 3584 
Q 2916 3584 3314 3078 
Q 3713 2572 3713 1747 
Q 3713 922 3314 415 
Q 2916 -91 2278 -91 
Q 1894 -91 1617 61 
Q 1341 213 1159 525 
z
M 3116 1747 
Q 3116 2381 2855 2742 
Q 2594 3103 2138 3103 
Q 1681 3103 1420 2742 
Q 1159 2381 1159 1747 
Q 1159 1113 1420 752 
Q 1681 391 2138 391 
Q 2594 391 2855 752 
Q 3116 1113 3116 1747 
z
" transform="scale(0.015625)"/>
      <path id="DejaVuSans-75" d="M 544 1381 
L 544 3500 
L 1119 3500 
L 1119 1403 
Q 1119 906 1312 657 
Q 1506 409 1894 409 
Q 2359 409 2629 706 
Q 2900 1003 2900 1516 
L 2900 3500 
L 3475 3500 
L 3475 0 
L 2900 0 
L 2900 538 
Q 2691 219 2414 64 
Q 2138 -91 1772 -91 
Q 1169 -91 856 284 
Q 544 659 544 1381 
z
M 1991 3584 
L 1991 3584 
z
" transform="scale(0.015625)"/>
     </defs>
     <use xlink:href="#DejaVuSans-52"/>
     <use xlink:href="#DejaVuSans-70" transform="translate(69.482422 0)"/>
     <use xlink:href="#DejaVuSans-75" transform="translate(132.958984 0)"/>
    </g>
   </g>
   <g id="text_3">
    <!-- PIN -->
    <g style="fill: #3a6a8a" transform="translate(86.04 102.439375) scale(0.1 -0.1)">
     <defs>
      <path id="DejaVuSans-50" d="M 1259 4147 
L 1259 2394 
L 2053 2394 
Q 2494 2394 2734 2622 
Q 2975 2850 2975 3272 
Q 2975 3691 2734 3919 
Q 2494 4147 2053 4147 
L 1259 4147 
z
M 628 4666 
L 2053 4666 
Q 2838 4666 3239 4311 
Q 3641 3956 3641 3272 
Q 3641 2581 3239 2228 
Q 2838 1875 2053 1875 
L 1259 1875 
L 1259 0 
L 628 0 
L 628 4666 
z
" transform="scale(0.015625)"/>
      <path id="DejaVuSans-49" d="M 628 4666 
L 1259 4666 
L 1259 0 
L 628 0 
L 628 4666 
z
" transform="scale(0.015625)"/>
      <path id="DejaVuSans-4e" d="M 628 4666 
L 1478 4666 
L 3547 763 
L 3547 4666 
L 4159 4666 
L 4159 0 
L 3309 0 
L 1241 3903 
L 1241 0 
L 628 0 
L 628 4666 
z
" transform="scale(0.015625)"/>
     </defs>
     <use xlink:href="#DejaVuSans-50"/>
     <use xlink:href="#DejaVuSans-49" transform="translate(60.302734 0)"/>
     <use xlink:href="#DejaVuSans-4e" transform="translate(89.794922 0)"/>
    </g>
   </g>
   <g id="text_4">
    <!-- IN -->
    <g style="fill: #3a6a8a" transform="translate(102.84 129.439375) scale(0.1 -0.1)">
     <use xlink:href="#DejaVuSans-49"/>
     <use xlink:href="#DejaVuSans-4e" transform="translate(29.492188 0)"/>
    </g>
   </g>
   <g id="patch_2">
    <path d="M 28.44 105.98 
C 29.156048 105.98 29.842866 105.695511 30.349188 105.189188 
C 30.855511 104.682866 31.14 103.996048 31.14 103.28 
C 31.14 102.563952 30.855511 101.877134 30.349188 101.370812 
C 29.842866 100.864489 29.156048 100.58 28.44 100.58 
C 27.723952 100.58 27.037134 100.864489 26.530812 101.370812 
C 26.024489 101.877134 25.74 102.563952 25.74 103.28 
C 25.74 103.996048 26.024489 104.682866 26.530812 105.189188 
C 27.037134 105.695511 27.723952 105.98 28.44 105.98 
z
" clip-path="url(#p9726cec8c6)" style="stroke: #000000; stroke-width: 2; stroke-linejoin: miter"/>
   </g>
  </g>
 </g>
 <defs>
  <clipPath id="p9726cec8c6">
   <rect x="0" y="0" width="117.24" height="195.8"/>
  </clipPath>
 </defs>
</svg>
