<?xml version="1.0" encoding="utf-8" standalone="no"?>
<!DOCTYPE svg PUBLIC "-//W3C//DTD SVG 1.1//EN"
  "http://www.w3.org/Graphics/SVG/1.1/DTD/svg11.dtd">
<svg xmlns:xlink="http://www.w3.org/1999/xlink" width="116.46pt" height="171.36pt" viewBox="0 0 116.46 171.36" xmlns="http://www.w3.org/2000/svg" version="1.1">
 <metadata>
  <rdf:RDF xmlns:dc="http://purl.org/dc/elements/1.1/" xmlns:cc="http://creativecommons.org/ns#" xmlns:rdf="http://www.w3.org/1999/02/22-rdf-syntax-ns#">
   <cc:Work>
    <dc:type rdf:resource="http://purl.org/dc/dcmitype/StillImage"/>
    <dc:date>2026-05-28T09:02:30.352954</dc:date>
    <dc:format>image/svg+xml</dc:format>
    <dc:creator>
     <cc:Agent>
      <dc:title>Matplotlib v3.10.6, https://matplotlib.org/</dc:title>
     </cc:Agent>
    </dc:creator>
   </cc:Work>
  </rdf:RDF>
 </metadata>
 <defs>
  <style type="text/css">*{stroke-linejoin: round; stroke-linecap: butt}</style>
 </defs>
 <g id="figure_1">
  <g id="patch_1">
   <path d="M 0 171.36 
L 116.46 171.36 
L 116.46 0 
L 0 0 
z
" style="fill: #ffffff"/>
  </g>
  <g id="axes_1">
   <g id="patch_2">
    <path d="M 84.384 35.88 
C 85.497853 35.88 86.566235 35.437462 87.353848 34.649848 
C 88.141462 33.862235 88.584 32.793853 88.584 31.68 
C 88.584 30.566147 88.141462 29.497765 87.353848 28.710152 
C 86.566235 27.922538 85.497853 27.48 84.384 27.48 
C 83.270147 27.48 82.201765 27.922538 81.414152 28.710152 
C 80.626538 29.497765 80.184 30.566147 80.184 31.68 
C 80.184 32.793853 80.626538 33.862235 81.414152 34.649848 
C 82.201765 35.437462 83.270147 35.88 84.384 35.88 
L 84.384 35.88 
z
" clip-path="url(#pc501ea0e0e)" style="fill: none; stroke: #1a2840; stroke-width: 2; stroke-linejoin: miter"/>
   </g>
   <g id="line2d_1">
    <path d="M 50.184 58.68 
L 50.184 43.68 
L 74.184 43.68 
L 74.184 19.68 
L 50.184 19.68 
L 50.184 4.68 
" clip-path="url(#pc501ea0e0e)" style="fill: none; stroke: #1a2840; stroke-width: 2; stroke-linecap: round"/>
   </g>
   <g id="line2d_2">
    <path d="M 80.184 43.68 
L 80.184 19.68 
" clip-path="url(#pc501ea0e0e)" style="fill: none; stroke: #1a2840; stroke-width: 2; stroke-linecap: round"/>
   </g>
   <g id="line2d_3">
    <path d="M 88.584 31.68 
L 99.384 31.68 
" clip-path="url(#pc501ea0e0e)" style="fill: none; stroke: #1a2840; stroke-width: 2; stroke-linecap: round"/>
   </g>
   <g id="line2d_4">
    <path d="M 50.184 166.68 
L 50.184 151.68 
L 74.184 151.68 
L 74.184 127.68 
L 50.184 127.68 
L 50.184 112.68 
" clip-path="url(#pc501ea0e0e)" style="fill: none; stroke: #1a2840; stroke-width: 2; stroke-linecap: round"/>
   </g>
   <g id="line2d_5">
    <path d="M 80.184 151.68 
L 80.184 127.68 
" clip-path="url(#pc501ea0e0e)" style="fill: none; stroke: #1a2840; stroke-width: 2; stroke-linecap: round"/>
   </g>
   <g id="line2d_6">
    <path d="M 80.184 139.68 
L 99.384 139.68 
" clip-path="url(#pc501ea0e0e)" style="fill: none; stroke: #1a2840; stroke-width: 2; stroke-linecap: round"/>
   </g>
   <g id="line2d_7">
    <path d="M 50.184 58.68 
L 50.184 47.88 
L 50.184 37.08 
" clip-path="url(#pc501ea0e0e)" style="fill: none; stroke: #1a2840; stroke-width: 2; stroke-linecap: round"/>
   </g>
   <g id="line2d_8">
    <path d="M 50.184 4.68 
L 50.184 85.68 
L 50.184 166.68 
" clip-path="url(#pc501ea0e0e)" style="fill: none; stroke: #1a2840; stroke-width: 2; stroke-linecap: round"/>
   </g>
   <g id="line2d_9">
    <path d="M 50.184 112.68 
L 50.184 127.08 
L 41.184 127.08 
L 59.184 127.08 
M 43.884 131.4 
L 56.484 131.4 
M 48.384 135.72 
L 51.984 135.72 
" clip-path="url(#pc501ea0e0e)" style="fill: none; stroke: #1a2840; stroke-width: 2; stroke-linecap: round"/>
   </g>
   <g id="line2d_10">
    <path d="M 50.184 85.68 
L 71.784 85.68 
L 93.384 85.68 
" clip-path="url(#pc501ea0e0e)" style="fill: none; stroke: #1a2840; stroke-width: 2; stroke-linecap: round"/>
   </g>
   <g id="line2d_11">
    <path d="M 99.384 31.68 
L 90.384 31.68 
L 81.384 31.68 
" clip-path="url(#pc501ea0e0e)" style="fill: none; stroke: #3a6a8a; stroke-width: 2; stroke-linecap: round"/>
   </g>
   <g id="line2d_12">
    <path d="M 99.384 139.68 
L 90.384 139.68 
L 81.384 139.68 
" clip-path="url(#pc501ea0e0e)" style="fill: none; stroke: #3a6a8a; stroke-width: 2; stroke-linecap: round"/>
   </g>
   <g id="line2d_13">
    <path d="M 81.384 31.68 
L 81.384 85.68 
L 81.384 139.68 
" clip-path="url(#pc501ea0e0e)" style="fill: none; stroke: #3a6a8a; stroke-width: 2; stroke-linecap: round"/>
   </g>
   <g id="line2d_14">
    <path d="M 81.384 85.68 
L 66.984 85.68 
L 52.584 85.68 
" clip-path="url(#pc501ea0e0e)" style="fill: none; stroke: #3a6a8a; stroke-width: 2; stroke-linecap: round"/>
   </g>
   <g id="text_1">
    <!-- P -->
    <g style="fill: #3a6a8a" transform="translate(41.157281 34.163437) scale(0.09 -0.09)">
     <defs>
      <path id="DejaVuSans-50" d="M 1259 4147 
L 1259 2394 
L 2053 2394 
Q 2494 2394 2734 2622 
Q 2975 2850 2975 3272 
Q 2975 3691 2734 3919 
Q 2494 4147 2053 4147 
L 1259 4147 
z
M 628 4666 
L 2053 4666 
Q 2838 4666 3239 4311 
Q 3641 3956 3641 3272 
Q 3641 2581 3239 2228 
Q 2838 1875 2053 1875 
L 1259 1875 
L 1259 0 
L 628 0 
L 628 4666 
z
" transform="scale(0.015625)"/>
     </defs>
     <use xlink:href="#DejaVuSans-50"/>
    </g>
   </g>
   <g id="text_2">
    <!-- N -->
    <g style="fill: #3a6a8a" transform="translate(39.850875 142.163437) scale(0.09 -0.09)">
     <defs>
      <path id="DejaVuSans-4e" d="M 628 4666 
L 1478 4666 
L 3547 763 
L 3547 4666 
L 4159 4666 
L 4159 0 
L 3309 0 
L 1241 3903 
L 1241 0 
L 628 0 
L 628 4666 
z
" transform="scale(0.015625)"/>
     </defs>
     <use xlink:href="#DejaVuSans-4e"/>
    </g>
   </g>
   <g id="text_3">
    <!-- VDD -->
    <g style="fill: #5a6a7a" transform="translate(26.567437 35.963437) scale(0.09 -0.09)">
     <defs>
      <path id="DejaVuSans-56" d="M 1831 0 
L 50 4666 
L 709 4666 
L 2188 738 
L 3669 4666 
L 4325 4666 
L 2547 0 
L 1831 0 
z
" transform="scale(0.015625)"/>
      <path id="DejaVuSans-44" d="M 1259 4147 
L 1259 519 
L 2022 519 
Q 2988 519 3436 956 
Q 3884 1394 3884 2338 
Q 3884 3275 3436 3711 
Q 2988 4147 2022 4147 
L 1259 4147 
z
M 628 4666 
L 1925 4666 
Q 3281 4666 3915 4102 
Q 4550 3538 4550 2338 
Q 4550 1131 3912 565 
Q 3275 0 1925 0 
L 628 0 
L 628 4666 
z
" transform="scale(0.015625)"/>
     </defs>
     <use xlink:href="#DejaVuSans-56"/>
     <use xlink:href="#DejaVuSans-44" transform="translate(68.408203 0)"/>
     <use xlink:href="#DejaVuSans-44" transform="translate(145.410156 0)"/>
    </g>
   </g>
   <g id="text_4">
    <!-- PIN -->
    <g style="fill: #3a6a8a" transform="translate(96.984 84.563437) scale(0.09 -0.09)">
     <defs>
      <path id="DejaVuSans-49" d="M 628 4666 
L 1259 4666 
L 1259 0 
L 628 0 
L 628 4666 
z
" transform="scale(0.015625)"/>
     </defs>
     <use xlink:href="#DejaVuSans-50"/>
     <use xlink:href="#DejaVuSans-49" transform="translate(60.302734 0)"/>
     <use xlink:href="#DejaVuSans-4e" transform="translate(89.794922 0)"/>
    </g>
   </g>
   <g id="text_5">
    <!-- DATA\_OUT -->
    <g style="fill: #3a6a8a" transform="translate(4.639 91.305625) scale(0.08 -0.08)">
     <defs>
      <path id="DejaVuSans-41" d="M 2188 4044 
L 1331 1722 
L 3047 1722 
L 2188 4044 
z
M 1831 4666 
L 2547 4666 
L 4325 0 
L 3669 0 
L 3244 1197 
L 1141 1197 
L 716 0 
L 50 0 
L 1831 4666 
z
" transform="scale(0.015625)"/>
      <path id="DejaVuSans-54" d="M -19 4666 
L 3928 4666 
L 3928 4134 
L 2272 4134 
L 2272 0 
L 1638 0 
L 1638 4134 
L -19 4134 
L -19 4666 
z
" transform="scale(0.015625)"/>
      <path id="DejaVuSans-5c" d="M 531 4666 
L 2156 -594 
L 1625 -594 
L 0 4666 
L 531 4666 
z
" transform="scale(0.015625)"/>
      <path id="DejaVuSans-5f" d="M 3263 -1063 
L 3263 -1509 
L -63 -1509 
L -63 -1063 
L 3263 -1063 
z
" transform="scale(0.015625)"/>
      <path id="DejaVuSans-4f" d="M 2522 4238 
Q 1834 4238 1429 3725 
Q 1025 3213 1025 2328 
Q 1025 1447 1429 934 
Q 1834 422 2522 422 
Q 3209 422 3611 934 
Q 4013 1447 4013 2328 
Q 4013 3213 3611 3725 
Q 3209 4238 2522 4238 
z
M 2522 4750 
Q 3503 4750 4090 4092 
Q 4678 3434 4678 2328 
Q 4678 1225 4090 567 
Q 3503 -91 2522 -91 
Q 1538 -91 948 565 
Q 359 1222 359 2328 
Q 359 3434 948 4092 
Q 1538 4750 2522 4750 
z
" transform="scale(0.015625)"/>
      <path id="DejaVuSans-55" d="M 556 4666 
L 1191 4666 
L 1191 1831 
Q 1191 1081 1462 751 
Q 1734 422 2344 422 
Q 2950 422 3222 751 
Q 3494 1081 3494 1831 
L 3494 4666 
L 4128 4666 
L 4128 1753 
Q 4128 841 3676 375 
Q 3225 -91 2344 -91 
Q 1459 -91 1007 375 
Q 556 841 556 1753 
L 556 4666 
z
" transform="scale(0.015625)"/>
     </defs>
     <use xlink:href="#DejaVuSans-44"/>
     <use xlink:href="#DejaVuSans-41" transform="translate(75.251953 0)"/>
     <use xlink:href="#DejaVuSans-54" transform="translate(135.910156 0)"/>
     <use xlink:href="#DejaVuSans-41" transform="translate(189.244141 0)"/>
     <use xlink:href="#DejaVuSans-5c" transform="translate(257.652344 0)"/>
     <use xlink:href="#DejaVuSans-5f" transform="translate(291.34375 0)"/>
     <use xlink:href="#DejaVuSans-4f" transform="translate(341.34375 0)"/>
     <use xlink:href="#DejaVuSans-55" transform="translate(420.054688 0)"/>
     <use xlink:href="#DejaVuSans-54" transform="translate(493.248047 0)"/>
    </g>
   </g>
   <g id="patch_3">
    <path d="M 50.184 88.38 
C 50.900048 88.38 51.586866 88.095511 52.093188 87.589188 
C 52.599511 87.082866 52.884 86.396048 52.884 85.68 
C 52.884 84.963952 52.599511 84.277134 52.093188 83.770812 
C 51.586866 83.264489 50.900048 82.98 50.184 82.98 
C 49.467952 82.98 48.781134 83.264489 48.274812 83.770812 
C 47.768489 84.277134 47.484 84.963952 47.484 85.68 
C 47.484 86.396048 47.768489 87.082866 48.274812 87.589188 
C 48.781134 88.095511 49.467952 88.38 50.184 88.38 
z
" clip-path="url(#pc501ea0e0e)" style="fill: #1a2840; stroke: #1a2840; stroke-width: 2; stroke-linejoin: miter"/>
   </g>
  </g>
 </g>
 <defs>
  <clipPath id="pc501ea0e0e">
   <rect x="0" y="-0" width="116.46" height="171.36"/>
  </clipPath>
 </defs>
</svg>
