<?xml version="1.0" encoding="utf-8" standalone="no"?>
<!DOCTYPE svg PUBLIC "-//W3C//DTD SVG 1.1//EN"
  "http://www.w3.org/Graphics/SVG/1.1/DTD/svg11.dtd">
<svg xmlns:xlink="http://www.w3.org/1999/xlink" width="85.68pt" height="45.36pt" viewBox="0 0 85.68 45.36" xmlns="http://www.w3.org/2000/svg" version="1.1">
 <metadata>
  <rdf:RDF xmlns:dc="http://purl.org/dc/elements/1.1/" xmlns:cc="http://creativecommons.org/ns#" xmlns:rdf="http://www.w3.org/1999/02/22-rdf-syntax-ns#">
   <cc:Work>
    <dc:type rdf:resource="http://purl.org/dc/dcmitype/StillImage"/>
    <dc:date>2026-05-28T08:40:33.938905</dc:date>
    <dc:format>image/svg+xml</dc:format>
    <dc:creator>
     <cc:Agent>
      <dc:title>Matplotlib v3.10.6, https://matplotlib.org/</dc:title>
     </cc:Agent>
    </dc:creator>
   </cc:Work>
  </rdf:RDF>
 </metadata>
 <defs>
  <style type="text/css">*{stroke-linejoin: round; stroke-linecap: butt}</style>
 </defs>
 <g id="figure_1">
  <g id="patch_1">
   <path d="M 0 45.36 
L 85.68 45.36 
L 85.68 0 
L 0 0 
z
" style="fill: #ffffff"/>
  </g>
  <g id="axes_1">
   <g id="line2d_1">
    <path d="M 4.68 22.68 
L 22.68 22.68 
L 40.68 22.68 
" clip-path="url(#p7151f7c301)" style="fill: none; stroke: #1a2840; stroke-width: 2; stroke-linecap: round"/>
   </g>
   <g id="line2d_2">
    <path d="M 40.68 22.68 
L 40.68 40.68 
L 67.68 22.68 
L 40.68 4.68 
L 40.68 22.68 
" clip-path="url(#p7151f7c301)" style="fill: none; stroke: #000000; stroke-width: 2; stroke-linecap: round"/>
   </g>
   <g id="text_1">
    <!-- PIN -->
    <g style="fill: #3a6a8a" transform="translate(27.819063 21.839375) scale(0.1 -0.1)">
     <defs>
      <path id="DejaVuSans-50" d="M 1259 4147 
L 1259 2394 
L 2053 2394 
Q 2494 2394 2734 2622 
Q 2975 2850 2975 3272 
Q 2975 3691 2734 3919 
Q 2494 4147 2053 4147 
L 1259 4147 
z
M 628 4666 
L 2053 4666 
Q 2838 4666 3239 4311 
Q 3641 3956 3641 3272 
Q 3641 2581 3239 2228 
Q 2838 1875 2053 1875 
L 1259 1875 
L 1259 0 
L 628 0 
L 628 4666 
z
" transform="scale(0.015625)"/>
      <path id="DejaVuSans-49" d="M 628 4666 
L 1259 4666 
L 1259 0 
L 628 0 
L 628 4666 
z
" transform="scale(0.015625)"/>
      <path id="DejaVuSans-4e" d="M 628 4666 
L 1478 4666 
L 3547 763 
L 3547 4666 
L 4159 4666 
L 4159 0 
L 3309 0 
L 1241 3903 
L 1241 0 
L 628 0 
L 628 4666 
z
" transform="scale(0.015625)"/>
     </defs>
     <use xlink:href="#DejaVuSans-50"/>
     <use xlink:href="#DejaVuSans-49" transform="translate(60.302734 0)"/>
     <use xlink:href="#DejaVuSans-4e" transform="translate(89.794922 0)"/>
    </g>
   </g>
   <g id="text_2">
    <!-- IN -->
    <g style="fill: #3a6a8a" transform="translate(71.28 21.839375) scale(0.1 -0.1)">
     <use xlink:href="#DejaVuSans-49"/>
     <use xlink:href="#DejaVuSans-4e" transform="translate(29.492188 0)"/>
    </g>
   </g>
   <g id="patch_2">
    <path d="M 40.68 25.38 
C 41.396048 25.38 42.082866 25.095511 42.589188 24.589188 
C 43.095511 24.082866 43.38 23.396048 43.38 22.68 
C 43.38 21.963952 43.095511 21.277134 42.589188 20.770812 
C 42.082866 20.264489 41.396048 19.98 40.68 19.98 
C 39.963952 19.98 39.277134 20.264489 38.770812 20.770812 
C 38.264489 21.277134 37.98 21.963952 37.98 22.68 
C 37.98 23.396048 38.264489 24.082866 38.770812 24.589188 
C 39.277134 25.095511 39.963952 25.38 40.68 25.38 
z
" clip-path="url(#p7151f7c301)" style="stroke: #000000; stroke-width: 2; stroke-linejoin: miter"/>
   </g>
  </g>
 </g>
 <defs>
  <clipPath id="p7151f7c301">
   <rect x="0" y="0" width="85.68" height="45.36"/>
  </clipPath>
 </defs>
</svg>
